<svg width="49" height="49" viewBox="0 0 49 49" fill="none" xmlns="http://www.w3.org/2000/svg">
<path d="M24.03 47.56C37.0253 47.56 47.56 37.0253 47.56 24.03C47.56 11.0347 37.0253 0.5 24.03 0.5C11.0347 0.5 0.5 11.0347 0.5 24.03C0.5 37.0253 11.0347 47.56 24.03 47.56Z" fill="#FFC13B" stroke="white" stroke-miterlimit="10"/>
<path d="M11.9701 23.4C11.972 21.0148 12.6813 18.6837 14.0081 16.7015C15.3349 14.7194 17.2197 13.1752 19.4241 12.2642C21.6286 11.3532 24.0536 11.1164 26.3926 11.5837C28.7317 12.051 30.8796 13.2014 32.5648 14.8894C34.25 16.5774 35.3969 18.7272 35.8603 21.067C36.3237 23.4068 36.0828 25.8315 35.1682 28.0344C34.2536 30.2373 32.7063 32.1196 30.7219 33.4431C28.7376 34.7666 26.4053 35.472 24.0201 35.47C22.4341 35.4766 20.8625 35.1688 19.3962 34.5644C17.93 33.9599 16.5981 33.0707 15.4775 31.9484C14.357 30.826 13.4701 29.4926 12.868 28.0253C12.266 26.558 11.9608 24.986 11.9701 23.4ZM19.45 29.4C19.45 30.08 19.7301 30.31 20.3701 30.07C21.3701 29.68 22.3701 29.24 23.3701 28.91C23.7815 28.79 24.2186 28.79 24.6301 28.91C25.6301 29.22 26.5401 29.63 27.4901 30C28.4401 30.37 28.67 30.09 28.59 29.16C28.51 28.23 28.4301 27.01 28.4001 25.93C28.409 25.6487 28.5031 25.3767 28.67 25.15C29.38 24.23 30.13 23.35 30.84 22.44C31.3 21.86 31.2001 21.55 30.5001 21.35C29.5001 21.06 28.4101 20.79 27.3601 20.54C27.1508 20.4936 26.9537 20.4037 26.7815 20.2762C26.6092 20.1488 26.4656 19.9865 26.3601 19.8C25.8001 18.87 25.2101 17.97 24.6201 17.07C24.2001 16.44 23.8501 16.45 23.4401 17.07C22.8101 18.07 22.2301 18.99 21.5801 19.93C21.4044 20.1742 21.1558 20.3562 20.8701 20.45C19.8001 20.77 18.7101 21.02 17.6401 21.32C16.8201 21.54 16.7201 21.89 17.2501 22.54C17.9401 23.4 18.6601 24.23 19.3301 25.1C19.5201 25.3545 19.6251 25.6624 19.6301 25.98C19.6001 27.14 19.51 28.27 19.45 29.41V29.4Z" fill="white"/>
<path d="M8.42005 13.81C8.57506 13.8566 8.72565 13.9169 8.87007 13.99C9.81007 14.52 10.7501 15.05 11.6801 15.6C12.0001 15.79 12.2401 16.05 12.0501 16.45C11.8601 16.85 11.6401 16.95 11.3001 16.76C10.2501 16.17 9.21005 15.58 8.20005 14.95C8.1073 14.8669 8.03611 14.7625 7.99256 14.6458C7.94902 14.5291 7.93443 14.4036 7.95005 14.28C7.98005 14.06 8.30005 13.92 8.42005 13.81Z" fill="white"/>
<path d="M17.45 11.01C17.31 11.14 17.16 11.41 16.97 11.44C16.8446 11.449 16.7187 11.4304 16.6012 11.3855C16.4837 11.3406 16.3775 11.2704 16.29 11.18C15.9774 10.7407 15.6967 10.2795 15.45 9.8C15.1221 9.27776 14.8249 8.73684 14.56 8.18C14.5332 8.04305 14.5354 7.90201 14.5664 7.76595C14.5974 7.62989 14.6566 7.50183 14.74 7.39C14.7943 7.33223 14.8623 7.28913 14.9377 7.2647C15.0131 7.24027 15.0935 7.23531 15.1713 7.25028C15.2492 7.26525 15.3219 7.29966 15.3829 7.35032C15.4439 7.40097 15.4911 7.46622 15.52 7.54C16.15 8.54 16.75 9.64 17.35 10.69C17.3967 10.792 17.4303 10.8995 17.45 11.01Z" fill="white"/>
<path d="M11.63 29.99C11.76 30.11 12.0001 30.24 12.0401 30.42C12.0621 30.535 12.0592 30.6535 12.0316 30.7673C12.004 30.8812 11.9523 30.9878 11.88 31.08C11.6448 31.2797 11.3821 31.4448 11.1 31.57L8.85005 32.86C8.49005 33.07 8.12004 33.03 7.98004 32.65C7.95613 32.5125 7.96644 32.3713 8.01004 32.2387C8.05364 32.1062 8.12919 31.9864 8.23004 31.89C9.23004 31.25 10.23 30.68 11.23 30.09C11.3603 30.0455 11.4942 30.0121 11.63 29.99Z" fill="white"/>
<path d="M15.18 39.54C14.63 39.54 14.31 39.08 14.51 38.72C15.08 37.72 15.68 36.64 16.29 35.62C16.3232 35.5389 16.3737 35.4661 16.438 35.4066C16.5023 35.3472 16.5788 35.3025 16.6622 35.2758C16.7456 35.2491 16.8339 35.2409 16.9208 35.2519C17.0076 35.2629 17.0911 35.2928 17.1652 35.3395C17.2393 35.3862 17.3022 35.4485 17.3497 35.5222C17.3971 35.5958 17.4279 35.6789 17.4398 35.7657C17.4517 35.8524 17.4444 35.9407 17.4186 36.0244C17.3927 36.1081 17.3488 36.1851 17.29 36.25C16.73 37.25 16.19 38.19 15.62 39.14C15.4941 39.2945 15.3458 39.4293 15.18 39.54Z" fill="white"/>
<path d="M36.4 16.81C36.28 16.68 36 16.51 36 16.33C36.0007 16.1949 36.0306 16.0615 36.0876 15.939C36.1445 15.8165 36.2272 15.7077 36.33 15.62C36.88 15.23 37.48 14.92 38.06 14.62C38.4468 14.3651 38.855 14.1443 39.28 13.96C39.4019 13.8924 39.5447 13.8727 39.6803 13.9048C39.816 13.9368 39.9348 14.0183 40.0136 14.1334C40.0923 14.2484 40.1254 14.3886 40.1062 14.5267C40.0871 14.6648 40.0171 14.7908 39.91 14.88C38.86 15.55 37.76 16.16 36.68 16.79C36.5872 16.8027 36.4937 16.8094 36.4 16.81Z" fill="white"/>
<path d="M33.59 7.96C33.5296 8.11751 33.4594 8.27113 33.38 8.42C32.87 9.3 32.38 10.18 31.84 11.06C31.64 11.41 31.36 11.64 30.95 11.4C30.54 11.16 30.6 10.81 30.81 10.4C31.33 9.52 31.81 8.63 32.36 7.76C32.467 7.55861 32.6258 7.38944 32.82 7.27C33.17 7.12 33.61 7.47 33.59 7.96Z" fill="white"/>
<path d="M36.4401 29.98C36.583 30.0172 36.7234 30.064 36.8601 30.12C37.8601 30.68 38.8001 31.23 39.7501 31.81C39.8324 31.8409 39.9067 31.8897 39.9677 31.953C40.0287 32.0163 40.0748 32.0925 40.1026 32.1758C40.1304 32.2592 40.1392 32.3478 40.1284 32.435C40.1176 32.5222 40.0874 32.6059 40.0401 32.68C40.0079 32.7515 39.9601 32.8148 39.9 32.8651C39.84 32.9155 39.7694 32.9517 39.6934 32.9709C39.6174 32.9901 39.5381 32.992 39.4613 32.9762C39.3846 32.9605 39.3123 32.9276 39.2501 32.88C38.2501 32.31 37.2501 31.75 36.2501 31.13C36.1568 31.0468 36.0847 30.9427 36.0395 30.8263C35.9943 30.7098 35.9773 30.5843 35.9901 30.46C36.0301 30.28 36.3001 30.12 36.4401 29.98Z" fill="white"/>
<path d="M31.4 35.33C31.5564 35.4336 31.6948 35.5619 31.81 35.71C32.38 36.71 32.93 37.64 33.49 38.6C33.5418 38.6655 33.579 38.7412 33.5994 38.8222C33.6197 38.9032 33.6226 38.9876 33.6079 39.0698C33.5932 39.152 33.5612 39.2301 33.514 39.299C33.4669 39.3679 33.4056 39.426 33.3344 39.4695C33.2631 39.513 33.1834 39.5408 33.1005 39.5512C33.0177 39.5616 32.9336 39.5543 32.8538 39.5298C32.774 39.5052 32.7003 39.4641 32.6376 39.4089C32.5749 39.3538 32.5246 39.286 32.49 39.21C31.88 38.21 31.29 37.21 30.72 36.21C30.5 35.81 30.84 35.31 31.4 35.33Z" fill="white"/>
<path d="M40.1801 24.01H38.5701C38.1801 24.01 37.8701 23.84 37.8701 23.42C37.8701 23 38.19 22.83 38.58 22.83C39.67 22.83 40.77 22.83 41.86 22.83C42.26 22.83 42.55 22.98 42.55 23.42C42.55 23.86 42.2501 24.01 41.8501 24.01H40.1801Z" fill="white"/>
<path d="M23.4301 39.56V38C23.4301 37.59 23.5801 37.25 24.0401 37.26C24.5001 37.27 24.6201 37.58 24.6201 37.97C24.6201 39.06 24.6201 40.16 24.6201 41.25C24.6201 41.65 24.4601 41.94 24.0201 41.93C23.5801 41.92 23.4401 41.62 23.4301 41.23V39.56Z" fill="white"/>
<path d="M24.6201 7.27C24.6201 7.81 24.6201 8.34 24.6201 8.88C24.6201 9.25 24.4601 9.53 24.0501 9.54C23.6401 9.55 23.4401 9.27 23.4401 8.87C23.4401 7.77 23.4401 6.68 23.4401 5.58C23.4401 5.18 23.6001 4.89 24.0401 4.89C24.4801 4.89 24.6201 5.2 24.6201 5.59C24.6201 6.15 24.6201 6.71 24.6201 7.27Z" fill="white"/>
<path d="M7.80006 24.01H6.30006C5.88006 24.01 5.56006 23.87 5.56006 23.39C5.56006 22.91 5.88007 22.82 6.27007 22.82C7.35007 22.82 8.43006 22.82 9.50006 22.82C9.89006 22.82 10.2001 22.95 10.2001 23.4C10.2001 23.85 9.92006 24 9.53006 24L7.80006 24.01Z" fill="white"/>
</svg>
